<svg width="159" height="159" viewBox="0 0 159 159" fill="none" xmlns="http://www.w3.org/2000/svg">
<path d="M79.6638 0.403076C123.317 0.403076 158.705 35.7908 158.705 79.4438C158.705 123.097 123.317 158.485 79.6638 158.485C36.0108 158.485 0.623047 123.097 0.623047 79.4438C0.623047 35.7908 36.0108 0.403076 79.6638 0.403076ZM79.6638 142.117C114.277 142.117 142.337 114.057 142.337 79.4438C142.337 44.8303 114.277 16.7705 79.6638 16.7705C45.0503 16.7705 16.9905 44.8303 16.9905 79.4438C16.9905 114.057 45.0503 142.117 79.6638 142.117Z" fill="#E7E7E7"/>
<path d="M79.6638 2.92093C79.6638 1.53036 80.7918 0.398895 82.1817 0.443161C100.102 1.01396 117.325 7.6642 130.997 19.3408C145.307 31.5633 154.787 48.491 157.731 67.0791C160.675 85.6673 156.89 104.696 147.057 120.742C137.224 136.789 121.987 148.8 104.089 154.616C86.19 160.432 66.8035 159.67 49.4162 152.468C32.0289 145.266 17.782 132.096 9.23797 115.328C0.693941 98.559 -1.58646 79.292 2.80695 60.9921C7.00411 43.5097 17.0291 28.006 31.1914 17.0109C32.2898 16.1582 33.8674 16.4105 34.6848 17.5355L41.3454 26.703C42.1627 27.828 41.9097 29.3988 40.8184 30.2606C29.8055 38.9583 22.0095 51.1202 18.7221 64.813C15.2385 79.3234 17.0467 94.6007 23.8214 107.897C30.5962 121.193 41.893 131.636 55.6797 137.346C69.4665 143.057 84.8386 143.661 99.0309 139.05C113.223 134.438 125.304 124.914 133.102 112.191C140.899 99.4668 143.9 84.3785 141.566 69.6395C139.231 54.9006 131.714 41.4782 120.367 31.7866C109.659 22.6412 96.2032 17.3844 82.1812 16.821C80.7918 16.7652 79.6638 15.6432 79.6638 14.2526V2.92093Z" fill="#1E90FF"/>
</svg>
