<svg width="24" height="24" viewBox="0 0 24 24" fill="none" xmlns="http://www.w3.org/2000/svg">
<circle cx="12" cy="12" r="12" fill="#1E90FF"/>
<path d="M17.8125 7H5.3125C5.13977 7 5 7.13977 5 7.3125V16.6875C5 16.8602 5.13977 17 5.3125 17H17.8125C17.9852 17 18.125 16.8602 18.125 16.6875V7.3125C18.125 7.13977 17.9852 7 17.8125 7ZM5.625 8.00121L10.195 12L5.625 15.9988V8.00121ZM11.5625 12.3659L6.14424 7.625H16.9808L11.5625 12.3659ZM10.6696 12.4152L11.3568 13.0165C11.4157 13.0681 11.489 13.0938 11.5625 13.0938C11.636 13.0938 11.7093 13.0681 11.7682 13.0165L12.4553 12.4153L16.9808 16.375H6.14422L10.6696 12.4152ZM12.9299 12L17.5 8.00121V15.9988L12.9299 12Z" fill="white"/>
</svg>
