<svg width="18" height="14" viewBox="0 0 18 14" fill="none" xmlns="http://www.w3.org/2000/svg">
<path d="M15.3265 8.10834C16.4694 8.10834 17.3961 7.18222 17.3961 6.03929C17.3961 4.89636 16.4694 3.9696 15.3265 3.9696C14.1838 3.9696 13.2571 4.89636 13.2571 6.03929C13.2571 7.18222 14.1838 8.10834 15.3265 8.10834Z" fill="#1E90FF"/>
<path d="M17.9763 10.1025C17.884 9.5484 17.426 8.77285 17.0793 8.42639C17.0336 8.38047 16.8295 8.36985 16.7744 8.40403C16.3529 8.66327 15.8577 8.81585 15.3263 8.81585C14.7955 8.81585 14.3003 8.66327 13.8787 8.40403C13.8234 8.36985 13.6195 8.38047 13.5739 8.42639C13.4769 8.52331 13.3712 8.65233 13.2681 8.80196C13.547 9.32719 13.7683 9.88512 13.8481 10.3656C13.9279 10.8472 13.902 11.3032 13.7729 11.7189C14.2313 11.8847 14.781 11.9575 15.3263 11.9575C16.7485 11.9575 18.204 11.4643 17.9763 10.1025Z" fill="#1E90FF"/>
<path d="M8.94688 7.23522C10.7992 7.23522 12.3009 5.73349 12.3009 3.88125C12.3009 2.02957 10.7992 0.527832 8.94688 0.527832C7.09492 0.527832 5.59375 2.02957 5.59375 3.88125C5.59375 5.73349 7.09489 7.23522 8.94688 7.23522Z" fill="#1E90FF"/>
<path d="M11.7867 7.74898C11.7139 7.67653 11.3834 7.658 11.2936 7.71361C10.6098 8.13429 9.80748 8.38056 8.94671 8.38056C8.08658 8.38056 7.28382 8.13429 6.60045 7.71361C6.51063 7.65796 6.18013 7.67653 6.10735 7.74898C5.54411 8.31162 4.80179 9.56944 4.65245 10.4661C4.28422 12.6749 6.64348 13.4723 8.94671 13.4723C11.2506 13.4723 13.6098 12.6749 13.2416 10.4661C13.0922 9.56944 12.3499 8.31162 11.7867 7.74898Z" fill="#1E90FF"/>
<path d="M2.67369 8.10834C3.81634 8.10834 4.74305 7.18222 4.74305 6.03929C4.74305 4.89636 3.81634 3.9696 2.67369 3.9696C1.53072 3.9696 0.604004 4.89636 0.604004 6.03929C0.604004 7.18222 1.53072 8.10834 2.67369 8.10834Z" fill="#1E90FF"/>
<path d="M4.04629 10.3656C4.13116 9.86097 4.37061 9.26683 4.67081 8.71744C4.58713 8.60315 4.5035 8.50359 4.42629 8.42639C4.38063 8.38047 4.17679 8.36985 4.12142 8.40403C3.69986 8.66327 3.20468 8.81585 2.67361 8.81585C2.14247 8.81585 1.64698 8.66327 1.22577 8.40403C1.17065 8.36985 0.966251 8.38047 0.920583 8.42639C0.572993 8.77282 0.116138 9.5484 0.0236066 10.1025C-0.203784 11.4643 1.2514 11.9574 2.67361 11.9574C3.18117 11.9574 3.69371 11.895 4.13116 11.7521C3.99331 11.328 3.96413 10.8613 4.04629 10.3656Z" fill="#1E90FF"/>
</svg>
