<svg width="24" height="24" viewBox="0 0 24 24" fill="none" xmlns="http://www.w3.org/2000/svg">
<circle cx="12" cy="12" r="12" fill="#1E90FF"/>
<path d="M14.8151 15.548L14.9634 15.6707L15.12 15.5587L17.1599 14.099C17.3161 13.9872 17.5327 14.0231 17.6445 14.1793L19.7534 17.1264C19.8652 17.2826 19.8293 17.4992 19.6731 17.611L17.2442 19.3491C16.8464 19.6338 16.338 19.6998 15.7288 19.5594C15.1162 19.4181 14.4232 19.0716 13.6945 18.5634C12.2387 17.5478 10.6932 15.9237 9.44081 14.1736C8.18841 12.4234 7.14985 10.4365 6.65843 8.73089C6.41248 7.87724 6.30813 7.1095 6.37211 6.48405C6.43574 5.86205 6.66232 5.40226 7.06015 5.11757L9.48904 3.37946C9.64526 3.26767 9.86186 3.30358 9.97365 3.4598L12.0826 6.40685C12.1943 6.56307 12.1584 6.77967 12.0022 6.89146L9.96234 8.35119L9.80577 8.46324L9.87411 8.64324C10.2151 9.54136 10.8339 10.8207 11.9489 12.3788C13.0638 13.9369 14.0751 14.9354 14.8151 15.548Z" stroke="white" stroke-width="0.5"/>
</svg>
